<?xml version="1.0" encoding="utf-8"?>
<!-- Generator: Adobe Illustrator 19.2.1, SVG Export Plug-In . SVG Version: 6.00 Build 0)  -->
<svg version="1.1" id="Layer_1" xmlns="http://www.w3.org/2000/svg" xmlns:xlink="http://www.w3.org/1999/xlink" x="0px" y="0px"
	 viewBox="0 0 284.2 137.7" style="enable-background:new 0 0 284.2 137.7;" xml:space="preserve">
<style type="text/css">
	.st0{enable-background:new    ;}
	.st1{fill:#FFFFFF;}
	.st2{fill:none;stroke:#9C7B33;stroke-width:0.5;stroke-miterlimit:10;}
</style>
<g>
	<g class="st0">
		<path class="st1" d="M67.3,61.6c-6.4,0-11.9-2.2-16.7-6.5c-4.8-4.3-7.4-9.6-8.1-15.9h-3.8v-5h3.8c0.6-6.3,3.3-11.6,8.1-15.9
			c4.8-4.3,10.3-6.5,16.7-6.5v4.9c-5,0-9.4,1.7-13.2,5.1c-3.8,3.4-6,7.5-6.6,12.4h16.9v5H47.5c0.6,4.9,2.8,9,6.6,12.3
			c3.8,3.4,8.2,5,13.2,5V61.6z"/>
		<path class="st1" d="M90.2,44.1c0,4.8-1.7,8.9-5.1,12.3c-3.4,3.4-7.5,5.2-12.2,5.2h-2.5V19.5h4.9v36.9c2.9-0.6,5.2-2,7.1-4.4
			c1.9-2.4,2.8-5,2.8-7.9V19.5h4.9V44.1z"/>
		<path class="st1" d="M117.1,61.6c-5.3,0-10-1.8-14-5.3c-4-3.6-6.3-8-6.9-13.2h-2.8v-5h2.8c0.6-5.2,2.9-9.6,6.9-13.2
			c4.1-3.6,8.7-5.4,14-5.4v4.9c-3.9,0-7.4,1.3-10.4,3.9c-3,2.6-4.8,5.8-5.4,9.7h13.6v5h-13.6c0.6,3.9,2.4,7.1,5.4,9.7
			c3,2.6,6.5,3.9,10.5,3.9V61.6z"/>
		<path class="st1" d="M130.1,11.8l-5.7,8.8l-4.2-2.6l5.7-8.8L130.1,11.8z"/>
		<path class="st1" d="M150.5,42.4c1.5,2.2,2.3,4.6,2.3,7.2c0,3.2-1.1,6.1-3.4,8.6c-2.3,2.5-5.2,3.8-8.7,3.8c-2.6,0-5-0.7-7.4-2.1
			l2.6-4.2c1.4,0.9,3,1.4,4.8,1.4c2.1,0,3.8-0.8,5.1-2.3s2-3.2,2-5.1c0-1.5-0.5-3-1.4-4.3L136.5,31c-1-1.4-1.4-2.8-1.4-4.3
			c0-1.8,0.7-3.5,2.2-4.9s3.2-2.1,5.1-2.1c1.4,0,2.8,0.4,4.1,1.2l-2.6,4.2c-0.4-0.3-0.9-0.5-1.4-0.5c-0.6,0-1.1,0.2-1.5,0.5
			c-0.5,0.4-0.7,0.8-0.7,1.4c0,0.7,0.2,1.4,0.7,2.1L150.5,42.4z"/>
	</g>
	<g class="st0">
		<path class="st1" d="M112.6,78.7l10,14.3c1,1.4,1.7,2.4,2.2,3.2c0.5,0.8,1,1.9,1.5,3.5c0.5,1.5,0.8,3,0.8,4.5c0,3.7-1.3,7-4,9.9
			c-2.7,2.9-6,4.3-10.1,4.3c-2.9,0-5.8-0.8-8.6-2.5l2.6-4.3c1.9,1.2,4,1.8,6.1,1.8c2.7,0,4.8-1,6.5-2.9c1.7-2,2.5-4.1,2.5-6.5
			c0-2-0.6-3.8-1.8-5.5l-11.8-16.9c-1.1-1.6-1.7-3.3-1.7-5.1c0-2,0.8-3.8,2.5-5.4c1.7-1.6,3.6-2.4,5.7-2.4c1.8,0,3.4,0.4,4.8,1.3
			l-2.6,4.2c-0.5-0.4-1.2-0.6-2.1-0.6c-0.8,0-1.5,0.3-2.2,1c-0.7,0.6-1.1,1.4-1.1,2.2C111.9,77.3,112.1,77.9,112.6,78.7z"/>
		<path class="st1" d="M141.4,81.2h-5.1v37.1h-4.9V81.2h-5.1v-5h15.2V81.2z"/>
		<path class="st1" d="M178.3,82.4c4.2,4.1,6.3,9.1,6.3,14.8c0,5.7-2.1,10.7-6.2,14.8c-4.1,4.1-9.1,6.2-14.8,6.2
			c-5.7,0-10.7-2.1-14.8-6.2c-4.1-4.1-6.2-9.1-6.2-14.9c0-5.7,2.1-10.7,6.2-14.8c4.1-4.1,9.1-6.2,14.8-6.2
			C169.2,76.2,174.1,78.3,178.3,82.4z M174.9,108.6c3.2-3.2,4.8-6.9,4.8-11.3c0-4.4-1.6-8.2-4.8-11.4c-3.2-3.2-7-4.8-11.4-4.8
			s-8.2,1.6-11.3,4.8s-4.7,7-4.7,11.4c0,4.4,1.6,8.2,4.7,11.3c3.2,3.2,6.9,4.7,11.3,4.7S171.7,111.8,174.9,108.6z"/>
		<path class="st1" d="M214.8,109.1c0,3.2-0.7,6.3-2,9.2h-5.7c1.8-2.7,2.6-5.7,2.6-9.2c0-4-1.3-7.5-4-10.5c-2.7-3-5.9-4.8-9.7-5.4
			v25.1h-5V93.3c-0.4,0-1.1,0.2-2,0.5l-1.4-4.7c0.7-0.3,1.3-0.4,1.7-0.5l1.7-0.3v-12h0.3c1.3,0,2.3,0,3,0.1c0.7,0.1,1.5,0.3,2.5,0.7
			s1.8,0.9,2.6,1.7c1.6,1.6,2.4,3.6,2.4,5.8c0,1.8-0.5,3.3-1.5,4.7c4.2,1.4,7.6,4,10.4,7.6C213.5,100.4,214.8,104.5,214.8,109.1z
			 M196.1,86.5c0.5-0.5,0.8-1.2,0.8-2.1c0-0.9-0.3-1.6-0.8-2.1V86.5z"/>
		<path class="st1" d="M236.2,76.2l-8.7,28.6v13.6h-4.9v-13.6l-8.6-28.6h5.1l6,19.6l5.9-19.6H236.2z"/>
	</g>
</g>
<g>
	<g class="st0">
		<path class="st2" d="M67.3,61.6c-6.4,0-11.9-2.2-16.7-6.5c-4.8-4.3-7.4-9.6-8.1-15.9h-3.8v-5h3.8c0.6-6.3,3.3-11.6,8.1-15.9
			c4.8-4.3,10.3-6.5,16.7-6.5v4.9c-5,0-9.4,1.7-13.2,5.1c-3.8,3.4-6,7.5-6.6,12.4h16.9v5H47.5c0.6,4.9,2.8,9,6.6,12.3
			c3.8,3.4,8.2,5,13.2,5V61.6z"/>
		<path class="st2" d="M90.2,44.1c0,4.8-1.7,8.9-5.1,12.3c-3.4,3.4-7.5,5.2-12.2,5.2h-2.5V19.5h4.9v36.9c2.9-0.6,5.2-2,7.1-4.4
			c1.9-2.4,2.8-5,2.8-7.9V19.5h4.9V44.1z"/>
		<path class="st2" d="M117.1,61.6c-5.3,0-10-1.8-14-5.3c-4-3.6-6.3-8-6.9-13.2h-2.8v-5h2.8c0.6-5.2,2.9-9.6,6.9-13.2
			c4.1-3.6,8.7-5.4,14-5.4v4.9c-3.9,0-7.4,1.3-10.4,3.9c-3,2.6-4.8,5.8-5.4,9.7h13.6v5h-13.6c0.6,3.9,2.4,7.1,5.4,9.7
			c3,2.6,6.5,3.9,10.5,3.9V61.6z"/>
		<path class="st2" d="M130.1,11.8l-5.7,8.8l-4.2-2.6l5.7-8.8L130.1,11.8z"/>
		<path class="st2" d="M150.5,42.4c1.5,2.2,2.3,4.6,2.3,7.2c0,3.2-1.1,6.1-3.4,8.6c-2.3,2.5-5.2,3.8-8.7,3.8c-2.6,0-5-0.7-7.4-2.1
			l2.6-4.2c1.4,0.9,3,1.4,4.8,1.4c2.1,0,3.8-0.8,5.1-2.3s2-3.2,2-5.1c0-1.5-0.5-3-1.4-4.3L136.5,31c-1-1.4-1.4-2.8-1.4-4.3
			c0-1.8,0.7-3.5,2.2-4.9s3.2-2.1,5.1-2.1c1.4,0,2.8,0.4,4.1,1.2l-2.6,4.2c-0.4-0.3-0.9-0.5-1.4-0.5c-0.6,0-1.1,0.2-1.5,0.5
			c-0.5,0.4-0.7,0.8-0.7,1.4c0,0.7,0.2,1.4,0.7,2.1L150.5,42.4z"/>
	</g>
	<g class="st0">
		<path class="st2" d="M112.6,78.7l10,14.3c1,1.4,1.7,2.4,2.2,3.2c0.5,0.8,1,1.9,1.5,3.5c0.5,1.5,0.8,3,0.8,4.5c0,3.7-1.3,7-4,9.9
			c-2.7,2.9-6,4.3-10.1,4.3c-2.9,0-5.8-0.8-8.6-2.5l2.6-4.3c1.9,1.2,4,1.8,6.1,1.8c2.7,0,4.8-1,6.5-2.9c1.7-2,2.5-4.1,2.5-6.5
			c0-2-0.6-3.8-1.8-5.5l-11.8-16.9c-1.1-1.6-1.7-3.3-1.7-5.1c0-2,0.8-3.8,2.5-5.4c1.7-1.6,3.6-2.4,5.7-2.4c1.8,0,3.4,0.4,4.8,1.3
			l-2.6,4.2c-0.5-0.4-1.2-0.6-2.1-0.6c-0.8,0-1.5,0.3-2.2,1c-0.7,0.6-1.1,1.4-1.1,2.2C111.9,77.3,112.1,77.9,112.6,78.7z"/>
		<path class="st2" d="M141.4,81.2h-5.1v37.1h-4.9V81.2h-5.1v-5h15.2V81.2z"/>
		<path class="st2" d="M178.3,82.4c4.2,4.1,6.3,9.1,6.3,14.8c0,5.7-2.1,10.7-6.2,14.8c-4.1,4.1-9.1,6.2-14.8,6.2
			c-5.7,0-10.7-2.1-14.8-6.2c-4.1-4.1-6.2-9.1-6.2-14.9c0-5.7,2.1-10.7,6.2-14.8c4.1-4.1,9.1-6.2,14.8-6.2
			C169.2,76.2,174.1,78.3,178.3,82.4z M174.9,108.6c3.2-3.2,4.8-6.9,4.8-11.3c0-4.4-1.6-8.2-4.8-11.4c-3.2-3.2-7-4.8-11.4-4.8
			s-8.2,1.6-11.3,4.8s-4.7,7-4.7,11.4c0,4.4,1.6,8.2,4.7,11.3c3.2,3.2,6.9,4.7,11.3,4.7S171.7,111.8,174.9,108.6z"/>
		<path class="st2" d="M214.8,109.1c0,3.2-0.7,6.3-2,9.2h-5.7c1.8-2.7,2.6-5.7,2.6-9.2c0-4-1.3-7.5-4-10.5c-2.7-3-5.9-4.8-9.7-5.4
			v25.1h-5V93.3c-0.4,0-1.1,0.2-2,0.5l-1.4-4.7c0.7-0.3,1.3-0.4,1.7-0.5l1.7-0.3v-12h0.3c1.3,0,2.3,0,3,0.1c0.7,0.1,1.5,0.3,2.5,0.7
			s1.8,0.9,2.6,1.7c1.6,1.6,2.4,3.6,2.4,5.8c0,1.8-0.5,3.3-1.5,4.7c4.2,1.4,7.6,4,10.4,7.6C213.5,100.4,214.8,104.5,214.8,109.1z
			 M196.1,86.5c0.5-0.5,0.8-1.2,0.8-2.1c0-0.9-0.3-1.6-0.8-2.1V86.5z"/>
		<path class="st2" d="M236.2,76.2l-8.7,28.6v13.6h-4.9v-13.6l-8.6-28.6h5.1l6,19.6l5.9-19.6H236.2z"/>
	</g>
</g>
</svg>
