<?xml version="1.0" encoding="utf-8"?>
<!-- Generator: Adobe Illustrator 19.2.1, SVG Export Plug-In . SVG Version: 6.00 Build 0)  -->
<svg version="1.1" id="Layer_1" xmlns="http://www.w3.org/2000/svg" xmlns:xlink="http://www.w3.org/1999/xlink" x="0px" y="0px"
	 viewBox="0 0 83 90" style="enable-background:new 0 0 83 90;" xml:space="preserve">
<style type="text/css">
	.st0{fill:url(#SVGID_1_);}
	.st1{opacity:0.25;fill:url(#SVGID_2_);}
	.st2{fill:#09161E;}
	.st3{fill:none;stroke:#9C7B33;stroke-width:3;stroke-miterlimit:10;}
	.st4{opacity:0.3;fill:none;stroke:url(#SVGID_3_);stroke-width:3;stroke-miterlimit:10;}
	.st5{opacity:0.3;fill:none;stroke:url(#SVGID_4_);stroke-width:3;stroke-miterlimit:10;}
	.st6{fill:none;stroke:#FFFFFF;stroke-miterlimit:10;}
	.st7{opacity:0.3;fill:none;stroke:url(#SVGID_5_);stroke-width:3;stroke-miterlimit:10;}
	.st8{opacity:0.3;fill:none;stroke:url(#SVGID_6_);stroke-width:3;stroke-miterlimit:10;}
	.st9{opacity:0.3;fill:none;stroke:url(#SVGID_7_);stroke-width:3;stroke-miterlimit:10;}
	.st10{opacity:0.3;fill:none;stroke:url(#SVGID_8_);stroke-width:3;stroke-miterlimit:10;}
	.st11{opacity:0.7;}
	.st12{clip-path:url(#SVGID_12_);}
	.st13{clip-path:url(#SVGID_13_);}
	.st14{opacity:0.3;fill:none;stroke:url(#SVGID_15_);stroke-width:3;stroke-miterlimit:10;}
	.st15{opacity:0.3;fill:none;stroke:url(#SVGID_16_);stroke-width:3;stroke-miterlimit:10;}
	.st16{opacity:0.3;fill:none;stroke:url(#SVGID_17_);stroke-width:3;stroke-miterlimit:10;}
	.st17{opacity:0.3;fill:none;stroke:url(#SVGID_18_);stroke-width:3;stroke-miterlimit:10;}
	.st18{opacity:0.3;fill:none;stroke:url(#SVGID_19_);stroke-width:3;stroke-miterlimit:10;}
	.st19{opacity:0.3;fill:none;stroke:url(#SVGID_20_);stroke-width:3;stroke-miterlimit:10;}
	.st20{clip-path:url(#SVGID_24_);}
	.st21{clip-path:url(#SVGID_25_);}
	.st22{opacity:0.3;fill:none;stroke:url(#SVGID_27_);stroke-width:3;stroke-miterlimit:10;}
	.st23{opacity:0.3;fill:none;stroke:url(#SVGID_28_);stroke-width:3;stroke-miterlimit:10;}
	.st24{opacity:0.3;fill:none;stroke:url(#SVGID_29_);stroke-width:3;stroke-miterlimit:10;}
	.st25{opacity:0.3;fill:none;stroke:url(#SVGID_30_);stroke-width:3;stroke-miterlimit:10;}
	.st26{opacity:0.3;fill:none;stroke:url(#SVGID_31_);stroke-width:3;stroke-miterlimit:10;}
	.st27{opacity:0.3;fill:none;stroke:url(#SVGID_32_);stroke-width:3;stroke-miterlimit:10;}
	.st28{clip-path:url(#SVGID_36_);}
	.st29{clip-path:url(#SVGID_37_);}
	.st30{fill:#081419;}
	.st31{fill:#174053;}
	.st32{opacity:0.3;fill:none;stroke:url(#SVGID_39_);stroke-width:3;stroke-miterlimit:10;}
	.st33{opacity:0.3;fill:none;stroke:url(#SVGID_40_);stroke-width:3;stroke-miterlimit:10;}
	.st34{opacity:0.3;fill:none;stroke:url(#SVGID_41_);stroke-width:3;stroke-miterlimit:10;}
	.st35{opacity:0.3;fill:none;stroke:url(#SVGID_42_);stroke-width:3;stroke-miterlimit:10;}
	.st36{clip-path:url(#SVGID_46_);}
	.st37{clip-path:url(#SVGID_47_);}
	.st38{fill:#9C7B33;}
	.st39{opacity:0.15;}
	.st40{fill:url(#SVGID_49_);}
	.st41{fill:url(#SVGID_50_);}
	.st42{fill:none;stroke:#9C7B33;stroke-miterlimit:10;}
	.st43{opacity:0.3;fill:none;stroke:url(#SVGID_51_);stroke-miterlimit:10;}
	.st44{opacity:0.3;fill:none;stroke:url(#SVGID_52_);stroke-miterlimit:10;}
	.st45{fill:#FFFFFF;}
	.st46{fill:none;stroke:#5D5D5D;stroke-miterlimit:10;}
	.st47{opacity:0.3;fill:none;stroke:url(#SVGID_53_);stroke-miterlimit:10;}
	.st48{opacity:0.3;fill:none;stroke:url(#SVGID_54_);stroke-miterlimit:10;}
	.st49{opacity:0.3;fill:none;stroke:url(#SVGID_55_);stroke-miterlimit:10;}
	.st50{opacity:0.3;fill:none;stroke:url(#SVGID_56_);stroke-miterlimit:10;}
	.st51{opacity:0.3;fill:none;stroke:url(#SVGID_57_);stroke-miterlimit:10;}
	.st52{opacity:0.3;fill:none;stroke:url(#SVGID_58_);stroke-miterlimit:10;}
	.st53{opacity:0.3;fill:none;stroke:url(#SVGID_59_);stroke-miterlimit:10;}
</style>
<g>
	<g>
		<g>
			<path class="st38" d="M41.5,12.5L9,45l32.5,32.5L74,45L41.5,12.5z M11.5,45l30-30l30,30l-30,30L11.5,45z"/>
			<path class="st38" d="M35.1,62.2l-0.5,0.5L17,45l18.2-18.2l0.5,0.5l-8.3,8.3c-3.8,5.7-3.8,13.3,0,19L35.1,62.2z M48.4,27.4
				l-0.5,0.5l7.8,7.8c2.8,4.1,3.5,9.2,2.3,13.8c-0.5,1.8-1.2,3.4-2.3,5l-8.4,8.4l0.5,0.5L66,45L48.4,27.4z M30.4,40.4l6.6,6.9v-6.6
				h0.9v8.8l-6.6-6.9v6.5h-0.9V40.4z M40.3,52l-0.7,1.6h-0.7l2.6-6l2.6,6h-0.7L42.7,52H40.3z M41.5,49.1l-1,2.3h1.9L41.5,49.1z
				 M45.1,40.4l6.6,6.9v-6.6h0.9v8.8L46,42.7v6.5h-0.9V40.4z"/>
		</g>
	</g>
	<g class="st39">
		<g>
			<linearGradient id="SVGID_1_" gradientUnits="userSpaceOnUse" x1="25.25" y1="28.7502" x2="57.75" y2="61.2502">
				<stop  offset="0" style="stop-color:#FFFFFF"/>
				<stop  offset="3.763441e-002" style="stop-color:#000000;stop-opacity:0"/>
			</linearGradient>
			<path class="st0" d="M41.5,12.5L9,45l32.5,32.5L74,45L41.5,12.5z M11.5,45l30-30l30,30l-30,30L11.5,45z"/>
			<linearGradient id="SVGID_2_" gradientUnits="userSpaceOnUse" x1="29.2071" y1="32.7073" x2="53.7927" y2="57.2929">
				<stop  offset="0" style="stop-color:#FFFFFF"/>
				<stop  offset="3.763441e-002" style="stop-color:#000000;stop-opacity:0"/>
			</linearGradient>
			<path style="fill:url(#SVGID_2_);" d="M35.1,62.2l-0.5,0.5L17,45l18.2-18.2l0.5,0.5l-8.3,8.3c-3.8,5.7-3.8,13.3,0,19L35.1,62.2z
				 M48.4,27.4l-0.5,0.5l7.8,7.8c2.8,4.1,3.5,9.2,2.3,13.8c-0.5,1.8-1.2,3.4-2.3,5l-8.4,8.4l0.5,0.5L66,45L48.4,27.4z M30.4,40.4
				l6.6,6.9v-6.6h0.9v8.8l-6.6-6.9v6.5h-0.9V40.4z M40.3,52l-0.7,1.6h-0.7l2.6-6l2.6,6h-0.7L42.7,52H40.3z M41.5,49.1l-1,2.3h1.9
				L41.5,49.1z M45.1,40.4l6.6,6.9v-6.6h0.9v8.8L46,42.7v6.5h-0.9V40.4z"/>
		</g>
	</g>
</g>
</svg>
